<svg xmlns="http://www.w3.org/2000/svg" xmlns:xlink="http://www.w3.org/1999/xlink" fill="none" version="1.1" width="24" height="24" viewBox="0 0 24 24"><defs><clipPath id="master_svg0_2_37037"><rect x="0" y="0" width="24" height="24" rx="4"/></clipPath><clipPath id="master_svg1_2_37038"><rect x="4" y="4" width="18" height="18" rx="0"/></clipPath><linearGradient x1="0" y1="1" x2="0.9516249135141656" y2="-0.04409092759696198" id="master_svg2_2_37036"><stop offset="0%" stop-color="#2C67EC" stop-opacity="1"/><stop offset="100%" stop-color="#9DBBFF" stop-opacity="0.8500000238418579"/></linearGradient></defs><g clip-path="url(#master_svg0_2_37037)"><rect x="0" y="0" width="24" height="24" rx="4" fill="#1E1F25" fill-opacity="1"/><g clip-path="url(#master_svg1_2_37038)"><g><path d="M7.53505,9.34608L7.35011,9.770340000000001C7.21478,10.08094,6.78518,10.08094,6.64984,9.770340000000001L6.46492,9.34608C6.1352899999999995,8.5896,5.54159,7.98731,4.800752,7.65781L4.231035,7.40442C3.9229885,7.2674,3.9229885,6.81911,4.231035,6.6820900000000005L4.7689,6.44286C5.52878,6.10488,6.1331299999999995,5.4803,6.45709,4.698121L6.646990000000001,4.239651C6.7793399999999995,3.9201167,7.22063,3.9201167,7.35297,4.239651L7.542870000000001,4.698121C7.86683,5.4803,8.47118,6.10488,9.2311,6.44286L9.76891,6.6820900000000005C10.07703,6.81911,10.07703,7.2674,9.76891,7.40442L9.19921,7.65781C8.45838,7.98731,7.864660000000001,8.5896,7.53505,9.34608ZM6.29771,20.2099C7.0664,15.5665,8.73329,5.49744,19.75,5.49744C18.6281,7.74744,17.875,8.872440000000001,17.125,9.622440000000001L16.375,10.372440000000001L17.5,11.122440000000001C16.75,13.37245,14.5,15.9975,11.5,16.372500000000002C9.49859,16.6226,8.24816,17.9976,7.74868,20.4974L6.25,20.4974C6.26555,20.4042,6.28142,20.3082,6.29771,20.2099Z" fill="url(#master_svg2_2_37036)" fill-opacity="1" style="mix-blend-mode:passthrough"/></g></g></g></svg>